<svg id="Layer_1" data-name="Layer 1" xmlns="http://www.w3.org/2000/svg" viewBox="0 0 57 57"><defs><style>.cls-1{fill:none;}.cls-2{fill:#fff;}.cls-3{fill:#274247;}</style></defs><title>Artboard 63</title><path class="cls-1" d="M40,23.47V48.34c8.11-3.47,14.22-10.86,15.46-12.43C54.22,34.33,48.11,26.94,40,23.47Z"/><path class="cls-1" d="M31.77,50.15A20.31,20.31,0,0,0,39,48.74V36H8.17C10,38.3,20,50.15,31.77,50.15Z"/><path class="cls-1" d="M31.77,50.15A20.31,20.31,0,0,0,39,48.74V36H8.17C10,38.3,20,50.15,31.77,50.15Z"/><path class="cls-1" d="M33,24.67a15,15,0,0,1-6,1.41v3.71S30.37,30.6,33,24.67Z"/><path class="cls-1" d="M40,23.47V48.34c8.11-3.47,14.22-10.86,15.46-12.43C54.22,34.33,48.11,26.94,40,23.47Z"/><path class="cls-1" d="M26.78,6.45c-7.72,0-14.26,7.7-15.56,9.33,1.3,1.62,7.84,9.32,15.56,9.32A12.39,12.39,0,0,0,30,24.65V16H17.5a.5.5,0,0,1,0-1H30V12.5a.5.5,0,0,1,1,0V24.37c5.79-2,10.29-7.28,11.34-8.59C41.05,14.15,34.5,6.45,26.78,6.45ZM36,18a2,2,0,1,1,2-2A2,2,0,0,1,36,18Z"/><path class="cls-2" d="M31.77,50.15A20.31,20.31,0,0,0,39,48.74V36H8.17C10,38.3,20,50.15,31.77,50.15Z"/><path class="cls-2" d="M27,29.79s3.37.81,6-5.12a15,15,0,0,1-6,1.41Z"/><path class="cls-2" d="M40,23.47V48.34c8.11-3.47,14.22-10.86,15.46-12.43C54.22,34.33,48.11,26.94,40,23.47ZM46.5,38A2.5,2.5,0,1,1,49,35.5,2.5,2.5,0,0,1,46.5,38Z"/><path class="cls-2" d="M20.83,23.66a12.91,12.91,0,0,0,9.17,1V16H17.5a.5.5,0,0,1,0-1H30V12.5a.5.5,0,0,1,1,0V24.36a20.16,20.16,0,0,0,5.66-3.09h0a32.37,32.37,0,0,0,5.68-5.49c-1.29-1.63-7.84-9.33-15.56-9.33s-14.26,7.7-15.56,9.33A29.79,29.79,0,0,0,20.83,23.66ZM36,14a2,2,0,1,1-2,2A2,2,0,0,1,36,14Z"/><circle class="cls-3" cx="46.5" cy="35.5" r="2.5"/><circle class="cls-3" cx="36" cy="16" r="2"/><path class="cls-3" d="M56.49,35.61c-.36-.48-7.07-9.44-16.49-13.25h0a21.89,21.89,0,0,0-2.11-.73,32.37,32.37,0,0,0,5.49-5.55l.22-.29-.22-.3C43.12,15.13,37.75,8,30.48,6A11.31,11.31,0,0,0,22,0V6.31C17.08,8,13.18,12,11.34,14.07A6,6,0,0,0,5.68,10c-.35,0-.7,0-.68.09V15l1.61,1L5,17v4.92s.33.08.68.08a6,6,0,0,0,5.76-4.4,29.48,29.48,0,0,0,8.32,6.67A45.33,45.33,0,0,0,8.93,33.34,8.57,8.57,0,0,0,1,28c-.5,0-1,0-1,.12V35l2.53,1.48L0,38v6.83c0,.08.48.12,1,.12a8.58,8.58,0,0,0,8.25-6.14C13,43,21.21,50.73,31,51.13v5.81s5,1.21,8.86-7.43c9.5-3.78,16.27-12.82,16.63-13.31l.22-.29ZM11.22,15.78c1.3-1.63,7.84-9.33,15.56-9.33s14.27,7.7,15.56,9.33a32.37,32.37,0,0,1-5.68,5.49h0A20.16,20.16,0,0,1,31,24.36V12.5a.5.5,0,0,0-1,0V15H17.5a.5.5,0,0,0,0,1H30v8.65a12.91,12.91,0,0,1-9.17-1A29.79,29.79,0,0,1,11.22,15.78ZM33,24.67c-2.6,5.93-6,5.12-6,5.12V26.08A15,15,0,0,0,33,24.67Zm6,24.07a20.31,20.31,0,0,1-7.23,1.41C20,50.15,10,38.3,8.17,36H39Zm1-.4V23.47c8.11,3.47,14.22,10.86,15.46,12.44C54.22,37.48,48.11,44.87,40,48.34Z"/></svg>